<?xml version="1.0" encoding="UTF-8"?>
<svg id="Layer_1" xmlns="http://www.w3.org/2000/svg" viewBox="0 0 24 24">
  <defs>
    <style>
      .cls-1 {
        fill: none;
        stroke: #595959;
        stroke-linecap: round;
        stroke-linejoin: round;
        stroke-width: .5px;
      }
    </style>
  </defs>
  <polygon class="cls-1" points="10.1 7 10.1 9.67 7.57 10.67 7.57 6 10.1 7"/>
  <path class="cls-1" d="M20.33,10.32l-1,6.79c-.14.91-.98,1.53-1.88,1.4-.9-.14-1.53-.98-1.39-1.88l.54-5.78"/>
  <path class="cls-1" d="M6.2,6.98c-.53,0-.53-.4-1.06-.4s-.53.4-1.06.4-.53-.4-1.07-.4-.53.4-1.07.4"/>
  <path class="cls-1" d="M6.2,8.42c-.53,0-.53-.4-1.06-.4s-.53.4-1.06.4-.53-.4-1.07-.4-.53.4-1.07.4"/>
  <path class="cls-1" d="M6.2,9.85c-.53,0-.53-.4-1.06-.4s-.53.4-1.06.4-.53-.4-1.07-.4-.53.4-1.07.4"/>
  <path class="cls-1" d="M10.1,6.94c.68-.37,2.32-.93,3.7-1.39,2.17-.71,4.56-.7,6.64.25,1.01.45,1.79,1.02,2.24,1.57l-.14,1.95c-1.08.9-3.6,1.54-6.55,1.54-2.44,0-4.61-.44-5.89-1.12"/>
  <line class="cls-1" x1="17.45" y1="18.52" x2="17.22" y2="20.11"/>
</svg>