<?xml version="1.0" encoding="UTF-8"?>
<svg id="Layer_1" xmlns="http://www.w3.org/2000/svg" viewBox="0 0 24 24">
  <defs>
    <style>
      .cls-1 {
        fill: none;
        stroke: #595959;
        stroke-linecap: round;
        stroke-linejoin: round;
        stroke-width: .5px;
      }
    </style>
  </defs>
  <line class="cls-1" x1="8.71" y1="14.42" x2="8.71" y2="16.59"/>
  <line class="cls-1" x1="10.54" y1="14.42" x2="10.54" y2="16.59"/>
  <line class="cls-1" x1="12.37" y1="14.42" x2="12.37" y2="16.59"/>
  <path class="cls-1" d="M17.03,13.03H3.62h0c1.07-4.71,5.16-8.13,9.99-8.33l5.51-.23,1.31,4.8c-.19,0-1.67,0-2.67,1.22-.88,1.08-.75,2.32-.73,2.54Z"/>
  <line class="cls-1" x1="4" y1="11.73" x2="17.13" y2="11.73"/>
  <path class="cls-1" d="M6.62,15.25c-.66,0-1.19.53-1.19,1.19s.53,1.2,1.19,1.2c.38,0,.72-.18.93-.46"/>
  <path class="cls-1" d="M14.33,15.25c.66,0,1.19.53,1.19,1.19s-.53,1.2-1.19,1.2c-.38,0-.71-.18-.93-.45"/>
  <path class="cls-1" d="M7.55,17.18c-.12.19-.19.42-.19.66,0,.66.53,1.2,1.19,1.2.28,0,.54-.1.74-.27"/>
  <path class="cls-1" d="M13.4,17.19c.13.19.2.41.2.65,0,.66-.54,1.2-1.2,1.2-.28,0-.54-.1-.74-.27"/>
  <path class="cls-1" d="M9.29,18.77c.09.57.59,1.01,1.19,1.01s1.09-.44,1.18-1.01"/>
  <path class="cls-1" d="M17.65,6.31h0c-.78,1.91-2.64,3.16-4.71,3.16h-3.52l-.7-1.33s1.89-2.25,8.94-1.84Z"/>
</svg>