<?xml version="1.0" encoding="UTF-8"?>
<svg id="Layer_1" xmlns="http://www.w3.org/2000/svg" viewBox="0 0 24 24">
  <defs>
    <style>
      .cls-1 {
        fill: none;
        stroke: #595959;
        stroke-linecap: round;
        stroke-linejoin: round;
        stroke-width: .5px;
      }
    </style>
  </defs>
  <rect class="cls-1" x="3.46" y="4.47" width="17.07" height="16.17"/>
  <line class="cls-1" x1="3.46" y1="9.09" x2="20.54" y2="9.09"/>
  <rect class="cls-1" x="5.49" y="11.13" width="13.01" height="7.26"/>
  <circle class="cls-1" cx="6.5" cy="6.84" r=".78"/>
  <circle class="cls-1" cx="10.05" cy="6.84" r=".78"/>
  <circle class="cls-1" cx="13.59" cy="6.84" r=".78"/>
  <circle class="cls-1" cx="17.14" cy="6.84" r=".78"/>
  <path class="cls-1" d="M10.55,4.47s.01-.06.01-.09c0-.56-1.16-1.02-2.58-1.02s-2.59.46-2.59,1.02c0,.03,0,.06.01.09"/>
  <path class="cls-1" d="M18.6,4.47s.01-.06.01-.09c0-.56-1.16-1.02-2.59-1.02s-2.58.46-2.58,1.02c0,.03,0,.06,0,.09"/>
</svg>