<?xml version="1.0" encoding="UTF-8"?>
<svg id="Layer_1" xmlns="http://www.w3.org/2000/svg" viewBox="0 0 24 24">
  <defs>
    <style>
      .cls-1 {
        fill: none;
        stroke: #595959;
        stroke-linecap: round;
        stroke-linejoin: round;
        stroke-width: .5px;
      }
    </style>
  </defs>
  <circle class="cls-1" cx="12" cy="12" r="8.84"/>
  <circle class="cls-1" cx="12" cy="12" r="2.12"/>
  <path class="cls-1" d="M12.92,10.1l.33.05,1.13-2.67c.6-1.42-.42-3.06-1.97-3.03-.78.01-1.5.26-2.05.52-.59.28-1.18.71-.79,1.6l.86.98c1.04,1.04.85,2.29.85,2.29l.4.06"/>
  <path class="cls-1" d="M14.02,12.63l.22-.23s.91.87,2.36.61l1.3-.15c.95.19.97.92.86,1.57-.1.59-.3,1.32-.74,1.98-.86,1.28-2.79,1.19-3.61-.11l-1.51-2.39"/>
  <path class="cls-1" d="M10.27,13.23l.07.27s-1.22.32-1.76,1.69l-.56,1.18c-.66.71-1.29.33-1.78-.1-.46-.4-.97-.96-1.29-1.68-.64-1.4.46-2.99,2-3l2.9-.02.04.18"/>
  <path class="cls-1" d="M5.34,9.88c.42-1.33,1.26-2.47,2.36-3.28"/>
  <path class="cls-1" d="M6.91,9.88c.1-.32.31-.6.58-.8"/>
  <path class="cls-1" d="M17.77,7.94c.79,1.15,1.17,2.51,1.13,3.88"/>
  <path class="cls-1" d="M16.81,9.18c.19.28.29.61.28.95"/>
  <path class="cls-1" d="M13.21,19.1c-1.37.27-2.77.08-4.01-.5"/>
  <path class="cls-1" d="M12.46,17.72c-.33.07-.68.02-.98-.12"/>
</svg>