<?xml version="1.0" encoding="UTF-8"?>
<svg id="Layer_1" xmlns="http://www.w3.org/2000/svg" viewBox="0 0 24 24">
  <defs>
    <style>
      .cls-1 {
        fill: none;
        stroke: #595959;
        stroke-linecap: round;
        stroke-linejoin: round;
        stroke-width: .5px;
      }
    </style>
  </defs>
  <rect class="cls-1" x="1.65" y="3.68" width="21.15" height="9.24" rx="1.74" ry="1.74"/>
  <line class="cls-1" x1="1.65" y1="11.18" x2="22.81" y2="11.18"/>
  <line class="cls-1" x1="1.65" y1="9.52" x2="22.81" y2="9.52"/>
  <path class="cls-1" d="M5.27,14.42c0,.98-.4.98-.4,1.96s.4.98.4,1.97-.4.98-.4,1.97"/>
  <path class="cls-1" d="M8.73,14.42c0,.98-.4.98-.4,1.96s.4.98.4,1.97-.4.98-.4,1.97"/>
  <path class="cls-1" d="M12.2,14.42c0,.98-.4.98-.4,1.96s.4.98.4,1.97-.4.98-.4,1.97"/>
  <path class="cls-1" d="M15.67,14.42c0,.98-.4.98-.4,1.96s.4.98.4,1.97-.4.98-.4,1.97"/>
  <path class="cls-1" d="M19.13,14.42c0,.98-.4.98-.4,1.96s.4.98.4,1.97-.4.98-.4,1.97"/>
  <circle class="cls-1" cx="20.43" cy="5.94" r=".71"/>
</svg>