<?xml version="1.0" encoding="UTF-8"?>
<svg id="Layer_1" xmlns="http://www.w3.org/2000/svg" viewBox="0 0 24 24">
  <defs>
    <style>
      .cls-1 {
        fill: none;
        stroke: #595959;
        stroke-linecap: round;
        stroke-linejoin: round;
        stroke-width: .5px;
      }
    </style>
  </defs>
  <circle class="cls-1" cx="12" cy="12" r="10.14"/>
  <path class="cls-1" d="M19.14,8.5c-.77-1.56-2.03-2.83-3.58-3.61"/>
  <path class="cls-1" d="M8.49,4.86c-1.56.77-2.83,2.04-3.61,3.59"/>
  <path class="cls-1" d="M8.45,19.12c-1.55-.78-2.81-2.05-3.58-3.6"/>
  <path class="cls-1" d="M19.11,15.56c-.78,1.55-2.05,2.81-3.6,3.58"/>
  <path class="cls-1" d="M17.51,9.3c-.59-1.21-1.56-2.19-2.76-2.79"/>
  <path class="cls-1" d="M9.29,6.49c-1.21.59-2.19,1.57-2.78,2.78"/>
  <path class="cls-1" d="M9.26,17.49c-1.2-.59-2.17-1.57-2.76-2.77"/>
  <path class="cls-1" d="M17.49,14.75c-.6,1.2-1.58,2.17-2.79,2.76"/>
  <path class="cls-1" d="M11.12,13.27c-.33.33-.77.53-1.27.53-.99,0-1.8-.81-1.8-1.8s.81-1.8,1.8-1.8c.5,0,.94.2,1.27.53"/>
  <circle class="cls-1" cx="14.15" cy="12" r="1.8"/>
  <circle class="cls-1" cx="19.67" cy="12" r=".97"/>
</svg>