<?xml version="1.0" encoding="UTF-8"?>
<svg id="Layer_1" xmlns="http://www.w3.org/2000/svg" viewBox="0 0 24 24">
  <defs>
    <style>
      .cls-1 {
        fill: none;
        stroke: #595959;
        stroke-linecap: round;
        stroke-linejoin: round;
        stroke-width: .5px;
      }
    </style>
  </defs>
  <line class="cls-1" x1="8.8" y1="8.43" x2="14.89" y2="8.43"/>
  <line class="cls-1" x1="8.8" y1="11.07" x2="14.89" y2="11.07"/>
  <line class="cls-1" x1="22.67" y1="6.14" x2="1.33" y2="6.14"/>
  <path class="cls-1" d="M22.67,14.75c-1.78,0-1.78-2-3.55-2s-1.78,2-3.56,2-1.78-2-3.56-2-1.78,2-3.56,2-1.78-2-3.56-2-1.78,2-3.56,2"/>
  <path class="cls-1" d="M22.67,17.93c-1.78,0-1.78-2-3.55-2s-1.78,2-3.56,2-1.78-2-3.56-2-1.78,2-3.56,2-1.78-2-3.56-2-1.78,2-3.56,2"/>
  <path class="cls-1" d="M22.67,21.11c-1.78,0-1.78-2-3.55-2s-1.78,2-3.56,2-1.78-2-3.56-2-1.78,2-3.56,2-1.78-2-3.56-2-1.78,2-3.56,2"/>
  <path class="cls-1" d="M8.8,12.18v-5.09c0-1.77,1.43-3.2,3.2-3.2h0v2.25"/>
  <path class="cls-1" d="M14.89,12.18v-5.09c0-1.77,1.43-3.2,3.2-3.2h0v2.25"/>
</svg>