<?xml version="1.0" encoding="UTF-8"?>
<svg id="Layer_1" xmlns="http://www.w3.org/2000/svg" viewBox="0 0 24 24">
  <defs>
    <style>
      .cls-1 {
        fill: none;
        stroke: #595959;
        stroke-linecap: round;
        stroke-linejoin: round;
        stroke-width: .5px;
      }
    </style>
  </defs>
  <path class="cls-1" d="M1.33,20.01c1.78,0,1.78,1,3.55,1s1.78-1,3.56-1,1.78,1,3.56,1,1.78-1,3.56-1,1.78,1,3.56,1,1.78-1,3.56-1"/>
  <path class="cls-1" d="M1.33,16.57c1.78,0,1.78,1,3.55,1s1.78-1,3.56-1,1.78,1,3.56,1,1.78-1,3.56-1,1.78,1,3.56,1,1.78-1,3.56-1"/>
  <path class="cls-1" d="M1.33,12.72c1.78,0,1.78,1,3.55,1s1.78-1,3.56-1,1.78,1,3.56,1,1.78-1,3.56-1,1.78,1,3.56,1,1.78-1,3.56-1"/>
  <path class="cls-1" d="M15.38,11.56c.06-.25.09-.52.09-.79,0-1.92-1.55-3.47-3.47-3.47s-3.47,1.55-3.47,3.47c0,.27.03.54.09.79"/>
  <line class="cls-1" x1="12" y1="5.13" x2="12" y2="3.49"/>
  <line class="cls-1" x1="17.65" y1="10.61" x2="19.29" y2="10.61"/>
  <line class="cls-1" x1="4.72" y1="10.61" x2="6.36" y2="10.61"/>
  <line class="cls-1" x1="16.05" y1="7.13" x2="17.21" y2="5.96"/>
  <line class="cls-1" x1="6.78" y1="5.96" x2="7.94" y2="7.13"/>
</svg>