<?xml version="1.0" encoding="UTF-8"?>
<svg id="Layer_1" xmlns="http://www.w3.org/2000/svg" viewBox="0 0 24 24">
  <defs>
    <style>
      .cls-1 {
        fill: none;
        stroke: #595959;
        stroke-linecap: round;
        stroke-linejoin: round;
        stroke-width: .5px;
      }
    </style>
  </defs>
  <line class="cls-1" x1="1.02" y1="20.63" x2="22.98" y2="20.63"/>
  <path class="cls-1" d="M11.35,10.05c0,1.96-1.28,3.55-2.86,3.55-.04,0-.07,0-.11-.01-.22,1.08-1.18,1.89-2.33,1.89s-2.12-.81-2.34-1.89c-.04.01-.07.01-.11.01-1.57,0-2.85-1.59-2.85-3.55,0-1.67.93-3.06,2.18-3.44-.01-.03-.01-.07-.01-.1,0-1.73,1.4-3.14,3.13-3.14s3.13,1.41,3.13,3.14c0,.03,0,.07-.01.1,1.25.38,2.18,1.77,2.18,3.44Z"/>
  <line class="cls-1" x1="6.05" y1="16.59" x2="6.05" y2="7.43"/>
  <line class="cls-1" x1="3.61" y1="10.83" x2="6" y2="13.22"/>
  <line class="cls-1" x1="8.3" y1="8.71" x2="6.12" y2="10.9"/>
  <path class="cls-1" d="M23.37,12.07c0,1.96-1.28,3.55-2.86,3.55-.04,0-.07,0-.11-.01-.22,1.08-1.18,1.89-2.33,1.89s-2.12-.81-2.34-1.89c-.04.01-.07.01-.11.01-1.57,0-2.85-1.59-2.85-3.55,0-1.67.93-3.06,2.18-3.44-.01-.03-.01-.07-.01-.1,0-1.73,1.4-3.14,3.13-3.14s3.13,1.41,3.13,3.14c0,.03,0,.07-.01.1,1.25.38,2.18,1.77,2.18,3.44Z"/>
  <line class="cls-1" x1="18.07" y1="9.45" x2="18.07" y2="20.63"/>
  <line class="cls-1" x1="15.63" y1="12.86" x2="18.02" y2="15.25"/>
  <line class="cls-1" x1="20.32" y1="10.74" x2="18.14" y2="12.92"/>
  <path class="cls-1" d="M16.03,19.43c0,.66-.53,1.2-1.2,1.2h-4.11c-.66,0-1.2-.54-1.2-1.2s.54-1.2,1.2-1.2c.43,0,.8.23,1.01.57-.04-.13-.07-.27-.07-.41,0-.66.53-1.2,1.19-1.2s1.2.54,1.2,1.2c0,.05,0,.1-.01.15.21-.19.48-.31.79-.31.67,0,1.2.54,1.2,1.2Z"/>
  <path class="cls-1" d="M9.38,19.19c0,.79-.64,1.44-1.44,1.44H2.99c-.79,0-1.44-.65-1.44-1.44s.65-1.44,1.44-1.44c.52,0,.96.28,1.21.69-.05-.16-.08-.32-.08-.49,0-.79.64-1.44,1.43-1.44s1.44.65,1.44,1.44c0,.06,0,.12-.01.18.25-.23.58-.37.95-.37.81,0,1.44.65,1.44,1.44Z"/>
</svg>