<?xml version="1.0" encoding="UTF-8"?>
<svg id="Layer_1" data-name="Layer 1" xmlns="http://www.w3.org/2000/svg" viewBox="0 0 1181.57 254.68">
  <defs>
    <style>
      .cls-1 {
        fill: #fff;
      }
    </style>
  </defs>
  <path class="cls-1" d="M234.34,254.4c3.27-10.22,1.87-194.17.61-204.12-2.77-20.72-15.36-38.12-32.74-45.86-6.55-3.04-13.35-4.42-20.4-4.42-2.01,0-4.53.28-6.55.55-8.31,1.11-16.87,4.14-25.18,9.39-10.33,6.35-20.15,15.47-31.23,28.73-11.08-13.26-21.15-22.38-31.23-28.73C79.31,4.7,70.75,1.66,62.44.55c-2.01-.28-4.53-.55-6.55-.55-7.05,0-14.1,1.38-20.4,4.42C17.86,12.16,5.52,29.84,2.75,50.28.73,59.95-1.66,244.46,1.61,254.68M118.6,65.47c13.6,18.79,22.41,36.47,25.44,51.38,1.26,6.35,1.51,11.88.76,16.85-.5,4.42-2.01,8.29-4.03,11.6-4.79,7.46-12.84,12.16-22.16,12.16s-17.63-4.42-22.16-12.16c-2.01-3.32-3.53-7.18-4.03-11.6-.76-4.97-.5-10.77.76-16.85,3.02-14.64,11.84-32.32,25.44-51.38M18.11,52.49c1.76-14.37,10.58-26.8,22.92-32.32,6.04-2.76,12.59-3.59,19.14-2.76,6.3.83,12.59,3.04,19.14,7.18,9.07,5.53,18.13,14.09,28.71,26.8-16.62,22.38-26.7,42.82-30.47,61.05-1.76,8.56-2.01,16.3-1.26,23.48,1.01,6.91,3.27,13.26,6.8,18.79,7.81,12.43,20.9,19.61,35.51,19.61s27.7-7.46,35.51-19.61c3.53-5.53,5.79-11.88,6.8-18.79,1.01-7.18.76-15.19-1.26-23.48-3.78-18.23-14.1-38.95-30.47-61.33,10.33-12.71,19.64-21.27,28.71-26.8,6.55-4.14,12.84-6.35,19.14-7.18,6.8-.83,13.35.28,19.14,2.76,12.34,5.53,21.15,17.96,22.92,32.32.76,6.91,2.7,175.16.19,182.89-.76,2.76-201.73,2.52-202.48-.24-2.01-7.18.32-175.2,1.32-182.38"/>
  <g>
    <path class="cls-1" d="M308.86,99.42c6.13-7.96,15.56-11.94,28.34-11.94,11.11,0,19.9,5.14,26.39,15.42,6.29-10.28,16.48-15.42,30.61-15.42,20.7,0,31.09,13.43,31.09,40.3v61.2h-23.88v-51.75c0-20.9-5.73-31.35-17.16-31.35s-17.2,11.61-17.2,34.83v48.26h-24.12v-49.76c0-22.22-5.06-33.34-15.17-33.34-12.62,0-18.91,11.61-18.91,34.83v48.26h-24.12v-98.27h24.12v8.71Z"/>
    <path class="cls-1" d="M531.01,188.98h-23.64v-8.96c-6.97,8.13-17.31,12.19-31.09,12.19s-24.76-5.31-32.96-15.92c-8.2-10.61-12.3-23.05-12.3-37.32s4.18-26.41,12.54-36.45c8.4-10.03,19.11-15.05,32.24-15.05,13.93,0,24.44,4.15,31.56,12.44v-9.21h23.64v98.27ZM510.11,139.72c0-9.12-2.59-16.63-7.72-22.51-5.13-5.89-11.7-8.83-19.78-8.83s-14.57,2.86-19.62,8.58c-5.06,5.72-7.6,13.31-7.6,22.76s2.59,17.08,7.72,22.89c5.13,5.8,11.78,8.71,19.9,8.71s14.69-2.82,19.66-8.46c4.98-5.64,7.44-13.35,7.44-23.13Z"/>
    <path class="cls-1" d="M569.34,132.01l34.31-41.3h32.36l-41.32,43.29,44.54,54.98h-32.84l-36.58-47.77-.48,47.77h-24.16V50.91h24.16v81.1Z"/>
    <path class="cls-1" d="M660.13,142.21c0,9.45,2.07,17.25,6.21,23.39s9.87,9.2,17.16,9.2c11.46,0,18.75-5.64,21.89-16.92l22.89,3.73c-7.44,20.4-22.37,30.6-44.78,30.6-14.93,0-26.83-4.77-35.7-14.3-8.84-9.54-13.29-21.94-13.29-37.19,0-16.09,4.26-28.98,12.82-38.69,8.56-9.7,20.14-14.55,34.83-14.55s26.11,4.6,34.31,13.81c8.24,9.2,12.34,21.77,12.34,37.69v3.24h-68.66ZM706.39,128.78c0-6.8-2.11-12.77-6.33-17.91-4.22-5.14-9.71-7.71-16.44-7.71s-12.18,2.69-16.4,8.09c-4.22,5.39-6.33,11.24-6.33,17.54h45.5Z"/>
    <path class="cls-1" d="M758.41,100.91c6.13-8.96,15.72-13.43,28.86-13.43,4.14,0,7.96.83,11.42,2.49l-2.99,21.89c-3.66-2.32-7.64-3.48-11.94-3.48-16.92,0-25.36,12.11-25.36,36.32v44.28h-24.16v-98.27h24.16v10.2Z"/>
    <path class="cls-1" d="M852.67,111.11c-5.29-4.98-10.87-7.46-16.64-7.46-8.8,0-13.22,3.98-13.22,11.94,0,4.48,3.98,8.13,11.94,10.95,14.61,5.31,23.64,10.16,27.15,14.56,3.46,4.39,5.21,9.82,5.21,16.29,0,10.62-3.7,19.07-11.07,25.38-7.4,6.3-16.48,9.45-27.27,9.45-13.93,0-25.43-5.47-34.55-16.42l10.67-13.68c8.32,8.29,15.92,12.44,22.89,12.44,10.11,0,15.21-4.89,15.21-14.68,0-4.98-2.67-8.67-7.96-11.07-5.33-2.4-9.39-4.19-12.22-5.35-15.24-6.63-22.89-14.68-22.89-24.13s2.87-17.12,8.6-23.01c5.73-5.89,13.22-8.83,22.53-8.83,13.25,0,23.76,3.4,31.56,10.2l-9.95,13.43Z"/>
    <path class="cls-1" d="M874.84,50.91h24.12v48.76c6.97-8.12,17.32-12.19,31.09-12.19,12.94,0,23.68,5.14,32.2,15.42,8.56,10.28,12.82,22.39,12.82,36.32,0,15.09-4.22,27.7-12.66,37.81-8.48,10.12-19.42,15.17-32.84,15.17-14.45,0-24.48-4.14-30.13-12.44l-.48,9.21h-24.12V50.91ZM950.47,139.72c0-8.29-2.59-15.59-7.72-21.89-5.13-6.3-11.7-9.45-19.66-9.45s-14.41,3.11-19.38,9.33c-4.98,6.22-7.48,13.6-7.48,22.14s2.63,15.92,7.84,22.14c5.21,6.22,11.66,9.33,19.27,9.33,8.32,0,14.89-3.03,19.78-9.08,4.9-6.05,7.36-13.56,7.36-22.51Z"/>
    <path class="cls-1" d="M1004.68,99.67c6.81-8.12,16.84-12.19,30.09-12.19,22.57,0,33.83,13.85,33.83,41.54v59.96h-23.88v-52c0-20.73-6.37-31.1-19.15-31.1-13.93,0-20.9,11.11-20.9,33.34v49.76h-24.12v-98.27h24.12v8.96Z"/>
    <path class="cls-1" d="M1081.31,50.91h24.12v48.76c6.97-8.12,17.36-12.19,31.13-12.19,12.94,0,23.64,5.14,32.2,15.42s12.82,22.39,12.82,36.32c0,15.09-4.22,27.7-12.7,37.81-8.44,10.12-19.38,15.17-32.84,15.17-14.41,0-24.48-4.14-30.09-12.44l-.52,9.21h-24.12V50.91ZM1156.93,139.72c0-8.29-2.59-15.59-7.72-21.89-5.13-6.3-11.66-9.45-19.62-9.45s-14.45,3.11-19.42,9.33c-4.98,6.22-7.44,13.6-7.44,22.14s2.59,15.92,7.8,22.14c5.25,6.22,11.66,9.33,19.31,9.33,8.28,0,14.89-3.03,19.78-9.08,4.9-6.05,7.32-13.56,7.32-22.51Z"/>
  </g>
</svg>